# xmcd
#
# Track frame offsets: 
#        150
#        10708
#        23857
#        39021
#        49818
#        65967
#        88046
#        106107
#        120805
#        132942
#        149072
#        161889
#
# Disc length: 2382 seconds
#
# Revision: 0
# Processed by: cddbd v1.5.2PL0 Copyright (c) Steve Scherf et al.
# Submitted via: ExactAudioCopy v0.99pb5
#
DISCID=9c094c0c
DTITLE=Doug McNeel and The Sons of Maverick - The Great Awakening
DYEAR=2009
DGENRE=Country
TTITLE0=Hound of Heaven
TTITLE1=Ride Pilgrim Ride
TTITLE2=Farewell
TTITLE3=Labrador
TTITLE4=Doctor Jesus
TTITLE5=The Great Awakening
TTITLE6=Hobbit on the Road
TTITLE7=Blues Universe
TTITLE8=The Call of St. Augustine (feat. Chip Prehn)
TTITLE9=Run Jack Run
TTITLE10=Marrying Man (feat. Downie Mickler)
TTITLE11=Let Me Be There
EXTD=
EXTT0=
EXTT1=
EXTT2=
EXTT3=
EXTT4=
EXTT5=
EXTT6=
EXTT7=
EXTT8=
EXTT9=
EXTT10=
EXTT11=
PLAYORDER=
